<mxfile host="app.diagrams.net" modified="2024-05-08T10:39:03.874Z" agent="Mozilla/5.0 (Windows NT 10.0; Win64; x64) AppleWebKit/537.36 (KHTML, like Gecko) Chrome/124.0.0.0 Safari/537.36" etag="RNZKNxAkga3O-f7mJxmP" version="24.3.1" type="device">
  <diagram name="Page-1" id="PoDqN8-kniQt5Zh8tC9b">
    <mxGraphModel dx="2074" dy="3298" grid="1" gridSize="10" guides="1" tooltips="1" connect="1" arrows="1" fold="1" page="1" pageScale="1" pageWidth="850" pageHeight="1100" math="1" shadow="0">
      <root>
        <mxCell id="0" />
        <mxCell id="1" parent="0" />
        <mxCell id="d00UFyPHOzQe9xzmYI4u-1" value="" style="endArrow=classic;html=1;rounded=0;" edge="1" parent="1">
          <mxGeometry width="50" height="50" relative="1" as="geometry">
            <mxPoint x="482" y="-1540" as="sourcePoint" />
            <mxPoint x="482" y="-1920" as="targetPoint" />
          </mxGeometry>
        </mxCell>
        <mxCell id="d00UFyPHOzQe9xzmYI4u-2" value="" style="endArrow=classic;html=1;rounded=0;" edge="1" parent="1">
          <mxGeometry width="50" height="50" relative="1" as="geometry">
            <mxPoint x="661" y="-1370" as="sourcePoint" />
            <mxPoint x="995" y="-1370" as="targetPoint" />
          </mxGeometry>
        </mxCell>
        <mxCell id="d00UFyPHOzQe9xzmYI4u-3" value="" style="shape=cube;whiteSpace=wrap;html=1;boundedLbl=1;backgroundOutline=1;darkOpacity=0.05;darkOpacity2=0.1;rotation=0;size=20;fillColor=#dae8fc;strokeColor=#000000;" vertex="1" parent="1">
          <mxGeometry x="705" y="-1830" width="90" height="100" as="geometry" />
        </mxCell>
        <mxCell id="d00UFyPHOzQe9xzmYI4u-4" value="" style="shape=cube;whiteSpace=wrap;html=1;boundedLbl=1;backgroundOutline=1;darkOpacity=0.05;darkOpacity2=0.1;rotation=0;size=20;fillColor=#dae8fc;strokeColor=#000000;" vertex="1" parent="1">
          <mxGeometry x="605" y="-1830" width="90" height="100" as="geometry" />
        </mxCell>
        <mxCell id="d00UFyPHOzQe9xzmYI4u-5" value="" style="shape=cube;whiteSpace=wrap;html=1;boundedLbl=1;backgroundOutline=1;darkOpacity=0.05;darkOpacity2=0.1;rotation=0;size=20;fillColor=#dae8fc;strokeColor=#000000;" vertex="1" parent="1">
          <mxGeometry x="805" y="-1830" width="90" height="100" as="geometry" />
        </mxCell>
        <mxCell id="d00UFyPHOzQe9xzmYI4u-6" value="" style="shape=cube;whiteSpace=wrap;html=1;boundedLbl=1;backgroundOutline=1;darkOpacity=0.05;darkOpacity2=0.1;rotation=0;size=20;fillColor=#dae8fc;strokeColor=#000000;" vertex="1" parent="1">
          <mxGeometry x="505" y="-1830" width="90" height="100" as="geometry" />
        </mxCell>
        <mxCell id="d00UFyPHOzQe9xzmYI4u-7" value="" style="shape=cube;whiteSpace=wrap;html=1;boundedLbl=1;backgroundOutline=1;darkOpacity=0.05;darkOpacity2=0.1;rotation=0;size=20;fillColor=#dae8fc;strokeColor=#000000;" vertex="1" parent="1">
          <mxGeometry x="705" y="-1720" width="90" height="100" as="geometry" />
        </mxCell>
        <mxCell id="d00UFyPHOzQe9xzmYI4u-8" value="" style="shape=cube;whiteSpace=wrap;html=1;boundedLbl=1;backgroundOutline=1;darkOpacity=0.05;darkOpacity2=0.1;rotation=0;size=20;fillColor=#dae8fc;strokeColor=#000000;" vertex="1" parent="1">
          <mxGeometry x="605" y="-1720" width="90" height="100" as="geometry" />
        </mxCell>
        <mxCell id="d00UFyPHOzQe9xzmYI4u-9" value="" style="shape=cube;whiteSpace=wrap;html=1;boundedLbl=1;backgroundOutline=1;darkOpacity=0.05;darkOpacity2=0.1;rotation=0;size=20;fillColor=#dae8fc;strokeColor=#000000;" vertex="1" parent="1">
          <mxGeometry x="805" y="-1720" width="90" height="100" as="geometry" />
        </mxCell>
        <mxCell id="d00UFyPHOzQe9xzmYI4u-10" value="" style="shape=cube;whiteSpace=wrap;html=1;boundedLbl=1;backgroundOutline=1;darkOpacity=0.05;darkOpacity2=0.1;rotation=0;size=20;fillColor=#dae8fc;strokeColor=#000000;" vertex="1" parent="1">
          <mxGeometry x="505" y="-1720" width="90" height="100" as="geometry" />
        </mxCell>
        <mxCell id="d00UFyPHOzQe9xzmYI4u-11" value="" style="shape=cube;whiteSpace=wrap;html=1;boundedLbl=1;backgroundOutline=1;darkOpacity=0.05;darkOpacity2=0.1;rotation=0;size=20;fillColor=#dae8fc;strokeColor=#000000;" vertex="1" parent="1">
          <mxGeometry x="705" y="-1610" width="90" height="100" as="geometry" />
        </mxCell>
        <mxCell id="d00UFyPHOzQe9xzmYI4u-12" value="" style="shape=cube;whiteSpace=wrap;html=1;boundedLbl=1;backgroundOutline=1;darkOpacity=0.05;darkOpacity2=0.1;rotation=0;size=20;fillColor=#dae8fc;strokeColor=#000000;" vertex="1" parent="1">
          <mxGeometry x="605" y="-1610" width="90" height="100" as="geometry" />
        </mxCell>
        <mxCell id="d00UFyPHOzQe9xzmYI4u-13" value="" style="shape=cube;whiteSpace=wrap;html=1;boundedLbl=1;backgroundOutline=1;darkOpacity=0.05;darkOpacity2=0.1;rotation=0;size=20;fillColor=#dae8fc;strokeColor=#000000;" vertex="1" parent="1">
          <mxGeometry x="805" y="-1610" width="90" height="100" as="geometry" />
        </mxCell>
        <mxCell id="d00UFyPHOzQe9xzmYI4u-14" value="" style="shape=cube;whiteSpace=wrap;html=1;boundedLbl=1;backgroundOutline=1;darkOpacity=0.05;darkOpacity2=0.1;rotation=0;size=20;fillColor=#dae8fc;strokeColor=#000000;" vertex="1" parent="1">
          <mxGeometry x="505" y="-1610" width="90" height="100" as="geometry" />
        </mxCell>
        <mxCell id="d00UFyPHOzQe9xzmYI4u-15" value="" style="shape=cube;whiteSpace=wrap;html=1;boundedLbl=1;backgroundOutline=1;darkOpacity=0.05;darkOpacity2=0.1;rotation=0;size=20;fillColor=#dae8fc;strokeColor=#000000;" vertex="1" parent="1">
          <mxGeometry x="705" y="-1940" width="90" height="100" as="geometry" />
        </mxCell>
        <mxCell id="d00UFyPHOzQe9xzmYI4u-16" value="" style="shape=cube;whiteSpace=wrap;html=1;boundedLbl=1;backgroundOutline=1;darkOpacity=0.05;darkOpacity2=0.1;rotation=0;size=20;fillColor=#dae8fc;strokeColor=#000000;" vertex="1" parent="1">
          <mxGeometry x="605" y="-1940" width="90" height="100" as="geometry" />
        </mxCell>
        <mxCell id="d00UFyPHOzQe9xzmYI4u-17" value="" style="shape=cube;whiteSpace=wrap;html=1;boundedLbl=1;backgroundOutline=1;darkOpacity=0.05;darkOpacity2=0.1;rotation=0;size=20;fillColor=#dae8fc;strokeColor=#000000;" vertex="1" parent="1">
          <mxGeometry x="805" y="-1940" width="90" height="100" as="geometry" />
        </mxCell>
        <mxCell id="d00UFyPHOzQe9xzmYI4u-18" value="" style="shape=cube;whiteSpace=wrap;html=1;boundedLbl=1;backgroundOutline=1;darkOpacity=0.05;darkOpacity2=0.1;rotation=0;size=20;fillColor=#dae8fc;strokeColor=#000000;" vertex="1" parent="1">
          <mxGeometry x="505" y="-1940" width="90" height="100" as="geometry" />
        </mxCell>
        <mxCell id="d00UFyPHOzQe9xzmYI4u-19" value="" style="group" vertex="1" connectable="0" parent="1">
          <mxGeometry x="545" y="-1900" width="480" height="525" as="geometry" />
        </mxCell>
        <mxCell id="d00UFyPHOzQe9xzmYI4u-20" value="" style="shape=cube;whiteSpace=wrap;html=1;boundedLbl=1;backgroundOutline=1;darkOpacity=0.05;darkOpacity2=0.1;rotation=0;size=20;fillColor=#ffe6cc;strokeColor=#000000;" vertex="1" parent="d00UFyPHOzQe9xzmYI4u-19">
          <mxGeometry x="200" y="110" width="90" height="100" as="geometry" />
        </mxCell>
        <mxCell id="d00UFyPHOzQe9xzmYI4u-21" value="" style="shape=cube;whiteSpace=wrap;html=1;boundedLbl=1;backgroundOutline=1;darkOpacity=0.05;darkOpacity2=0.1;rotation=0;size=20;fillColor=#ffe6cc;strokeColor=#000000;" vertex="1" parent="d00UFyPHOzQe9xzmYI4u-19">
          <mxGeometry x="100" y="110" width="90" height="100" as="geometry" />
        </mxCell>
        <mxCell id="d00UFyPHOzQe9xzmYI4u-22" value="" style="shape=cube;whiteSpace=wrap;html=1;boundedLbl=1;backgroundOutline=1;darkOpacity=0.05;darkOpacity2=0.1;rotation=0;size=20;fillColor=#ffe6cc;strokeColor=#000000;" vertex="1" parent="d00UFyPHOzQe9xzmYI4u-19">
          <mxGeometry x="300" y="110" width="90" height="100" as="geometry" />
        </mxCell>
        <mxCell id="d00UFyPHOzQe9xzmYI4u-23" value="" style="shape=cube;whiteSpace=wrap;html=1;boundedLbl=1;backgroundOutline=1;darkOpacity=0.05;darkOpacity2=0.1;rotation=0;size=20;fillColor=#ffe6cc;strokeColor=#000000;" vertex="1" parent="d00UFyPHOzQe9xzmYI4u-19">
          <mxGeometry y="110" width="90" height="100" as="geometry" />
        </mxCell>
        <mxCell id="d00UFyPHOzQe9xzmYI4u-24" value="" style="shape=cube;whiteSpace=wrap;html=1;boundedLbl=1;backgroundOutline=1;darkOpacity=0.05;darkOpacity2=0.1;rotation=0;size=20;fillColor=#ffe6cc;strokeColor=#000000;" vertex="1" parent="d00UFyPHOzQe9xzmYI4u-19">
          <mxGeometry x="200" y="220" width="90" height="100" as="geometry" />
        </mxCell>
        <mxCell id="d00UFyPHOzQe9xzmYI4u-25" value="" style="shape=cube;whiteSpace=wrap;html=1;boundedLbl=1;backgroundOutline=1;darkOpacity=0.05;darkOpacity2=0.1;rotation=0;size=20;fillColor=#ffe6cc;strokeColor=#000000;" vertex="1" parent="d00UFyPHOzQe9xzmYI4u-19">
          <mxGeometry x="100" y="220" width="90" height="100" as="geometry" />
        </mxCell>
        <mxCell id="d00UFyPHOzQe9xzmYI4u-26" value="" style="shape=cube;whiteSpace=wrap;html=1;boundedLbl=1;backgroundOutline=1;darkOpacity=0.05;darkOpacity2=0.1;rotation=0;size=20;fillColor=#ffe6cc;strokeColor=#000000;" vertex="1" parent="d00UFyPHOzQe9xzmYI4u-19">
          <mxGeometry x="300" y="220" width="90" height="100" as="geometry" />
        </mxCell>
        <mxCell id="d00UFyPHOzQe9xzmYI4u-27" value="" style="shape=cube;whiteSpace=wrap;html=1;boundedLbl=1;backgroundOutline=1;darkOpacity=0.05;darkOpacity2=0.1;rotation=0;size=20;fillColor=#ffe6cc;strokeColor=#000000;" vertex="1" parent="d00UFyPHOzQe9xzmYI4u-19">
          <mxGeometry y="220" width="90" height="100" as="geometry" />
        </mxCell>
        <mxCell id="d00UFyPHOzQe9xzmYI4u-28" value="" style="shape=cube;whiteSpace=wrap;html=1;boundedLbl=1;backgroundOutline=1;darkOpacity=0.05;darkOpacity2=0.1;rotation=0;size=20;fillColor=#ffe6cc;strokeColor=#000000;" vertex="1" parent="d00UFyPHOzQe9xzmYI4u-19">
          <mxGeometry x="200" y="330" width="90" height="100" as="geometry" />
        </mxCell>
        <mxCell id="d00UFyPHOzQe9xzmYI4u-29" value="" style="shape=cube;whiteSpace=wrap;html=1;boundedLbl=1;backgroundOutline=1;darkOpacity=0.05;darkOpacity2=0.1;rotation=0;size=20;fillColor=#ffe6cc;strokeColor=#000000;" vertex="1" parent="d00UFyPHOzQe9xzmYI4u-19">
          <mxGeometry x="100" y="330" width="90" height="100" as="geometry" />
        </mxCell>
        <mxCell id="d00UFyPHOzQe9xzmYI4u-30" value="" style="shape=cube;whiteSpace=wrap;html=1;boundedLbl=1;backgroundOutline=1;darkOpacity=0.05;darkOpacity2=0.1;rotation=0;size=20;fillColor=#ffe6cc;strokeColor=#000000;" vertex="1" parent="d00UFyPHOzQe9xzmYI4u-19">
          <mxGeometry x="300" y="330" width="90" height="100" as="geometry" />
        </mxCell>
        <mxCell id="d00UFyPHOzQe9xzmYI4u-31" value="" style="shape=cube;whiteSpace=wrap;html=1;boundedLbl=1;backgroundOutline=1;darkOpacity=0.05;darkOpacity2=0.1;rotation=0;size=20;fillColor=#ffe6cc;strokeColor=#000000;" vertex="1" parent="d00UFyPHOzQe9xzmYI4u-19">
          <mxGeometry y="330" width="90" height="100" as="geometry" />
        </mxCell>
        <mxCell id="d00UFyPHOzQe9xzmYI4u-32" value="" style="shape=cube;whiteSpace=wrap;html=1;boundedLbl=1;backgroundOutline=1;darkOpacity=0.05;darkOpacity2=0.1;rotation=0;size=20;fillColor=#ffe6cc;strokeColor=#000000;" vertex="1" parent="d00UFyPHOzQe9xzmYI4u-19">
          <mxGeometry x="200" width="90" height="100" as="geometry" />
        </mxCell>
        <mxCell id="d00UFyPHOzQe9xzmYI4u-33" value="" style="shape=cube;whiteSpace=wrap;html=1;boundedLbl=1;backgroundOutline=1;darkOpacity=0.05;darkOpacity2=0.1;rotation=0;size=20;fillColor=#ffe6cc;strokeColor=#000000;" vertex="1" parent="d00UFyPHOzQe9xzmYI4u-19">
          <mxGeometry x="100" width="90" height="100" as="geometry" />
        </mxCell>
        <mxCell id="d00UFyPHOzQe9xzmYI4u-34" value="" style="shape=cube;whiteSpace=wrap;html=1;boundedLbl=1;backgroundOutline=1;darkOpacity=0.05;darkOpacity2=0.1;rotation=0;size=20;fillColor=#ffe6cc;strokeColor=#000000;" vertex="1" parent="d00UFyPHOzQe9xzmYI4u-19">
          <mxGeometry x="300" width="90" height="100" as="geometry" />
        </mxCell>
        <mxCell id="d00UFyPHOzQe9xzmYI4u-35" value="" style="shape=cube;whiteSpace=wrap;html=1;boundedLbl=1;backgroundOutline=1;darkOpacity=0.05;darkOpacity2=0.1;rotation=0;size=20;fillColor=#ffe6cc;strokeColor=#000000;" vertex="1" parent="d00UFyPHOzQe9xzmYI4u-19">
          <mxGeometry width="90" height="100" as="geometry" />
        </mxCell>
        <mxCell id="d00UFyPHOzQe9xzmYI4u-36" value="" style="group" vertex="1" connectable="0" parent="d00UFyPHOzQe9xzmYI4u-19">
          <mxGeometry x="40" y="40" width="440" height="485" as="geometry" />
        </mxCell>
        <mxCell id="d00UFyPHOzQe9xzmYI4u-37" value="" style="group" vertex="1" connectable="0" parent="d00UFyPHOzQe9xzmYI4u-36">
          <mxGeometry width="390" height="430" as="geometry" />
        </mxCell>
        <mxCell id="d00UFyPHOzQe9xzmYI4u-38" value="" style="shape=cube;whiteSpace=wrap;html=1;boundedLbl=1;backgroundOutline=1;darkOpacity=0.05;darkOpacity2=0.1;rotation=0;size=20;" vertex="1" parent="d00UFyPHOzQe9xzmYI4u-37">
          <mxGeometry x="200" y="110" width="90" height="100" as="geometry" />
        </mxCell>
        <mxCell id="d00UFyPHOzQe9xzmYI4u-39" value="" style="shape=cube;whiteSpace=wrap;html=1;boundedLbl=1;backgroundOutline=1;darkOpacity=0.05;darkOpacity2=0.1;rotation=0;size=20;" vertex="1" parent="d00UFyPHOzQe9xzmYI4u-37">
          <mxGeometry x="100" y="110" width="90" height="100" as="geometry" />
        </mxCell>
        <mxCell id="d00UFyPHOzQe9xzmYI4u-40" value="" style="shape=cube;whiteSpace=wrap;html=1;boundedLbl=1;backgroundOutline=1;darkOpacity=0.05;darkOpacity2=0.1;rotation=0;size=20;" vertex="1" parent="d00UFyPHOzQe9xzmYI4u-37">
          <mxGeometry x="300" y="110" width="90" height="100" as="geometry" />
        </mxCell>
        <mxCell id="d00UFyPHOzQe9xzmYI4u-41" value="" style="shape=cube;whiteSpace=wrap;html=1;boundedLbl=1;backgroundOutline=1;darkOpacity=0.05;darkOpacity2=0.1;rotation=0;size=20;" vertex="1" parent="d00UFyPHOzQe9xzmYI4u-37">
          <mxGeometry y="110" width="90" height="100" as="geometry" />
        </mxCell>
        <mxCell id="d00UFyPHOzQe9xzmYI4u-42" value="" style="shape=cube;whiteSpace=wrap;html=1;boundedLbl=1;backgroundOutline=1;darkOpacity=0.05;darkOpacity2=0.1;rotation=0;size=20;" vertex="1" parent="d00UFyPHOzQe9xzmYI4u-37">
          <mxGeometry x="200" y="220" width="90" height="100" as="geometry" />
        </mxCell>
        <mxCell id="d00UFyPHOzQe9xzmYI4u-43" value="" style="shape=cube;whiteSpace=wrap;html=1;boundedLbl=1;backgroundOutline=1;darkOpacity=0.05;darkOpacity2=0.1;rotation=0;size=20;" vertex="1" parent="d00UFyPHOzQe9xzmYI4u-37">
          <mxGeometry x="100" y="220" width="90" height="100" as="geometry" />
        </mxCell>
        <mxCell id="d00UFyPHOzQe9xzmYI4u-44" value="" style="shape=cube;whiteSpace=wrap;html=1;boundedLbl=1;backgroundOutline=1;darkOpacity=0.05;darkOpacity2=0.1;rotation=0;size=20;" vertex="1" parent="d00UFyPHOzQe9xzmYI4u-37">
          <mxGeometry x="300" y="220" width="90" height="100" as="geometry" />
        </mxCell>
        <mxCell id="d00UFyPHOzQe9xzmYI4u-45" value="" style="shape=cube;whiteSpace=wrap;html=1;boundedLbl=1;backgroundOutline=1;darkOpacity=0.05;darkOpacity2=0.1;rotation=0;size=20;fillColor=#d5e8d4;strokeColor=#000000;" vertex="1" parent="d00UFyPHOzQe9xzmYI4u-37">
          <mxGeometry y="220" width="90" height="100" as="geometry" />
        </mxCell>
        <mxCell id="d00UFyPHOzQe9xzmYI4u-46" value="" style="shape=cube;whiteSpace=wrap;html=1;boundedLbl=1;backgroundOutline=1;darkOpacity=0.05;darkOpacity2=0.1;rotation=0;size=20;" vertex="1" parent="d00UFyPHOzQe9xzmYI4u-37">
          <mxGeometry x="200" y="330" width="90" height="100" as="geometry" />
        </mxCell>
        <mxCell id="d00UFyPHOzQe9xzmYI4u-47" value="" style="shape=cube;whiteSpace=wrap;html=1;boundedLbl=1;backgroundOutline=1;darkOpacity=0.05;darkOpacity2=0.1;rotation=0;size=20;" vertex="1" parent="d00UFyPHOzQe9xzmYI4u-37">
          <mxGeometry x="100" y="330" width="90" height="100" as="geometry" />
        </mxCell>
        <mxCell id="d00UFyPHOzQe9xzmYI4u-48" value="" style="shape=cube;whiteSpace=wrap;html=1;boundedLbl=1;backgroundOutline=1;darkOpacity=0.05;darkOpacity2=0.1;rotation=0;size=20;" vertex="1" parent="d00UFyPHOzQe9xzmYI4u-37">
          <mxGeometry x="300" y="330" width="90" height="100" as="geometry" />
        </mxCell>
        <mxCell id="d00UFyPHOzQe9xzmYI4u-49" value="" style="shape=cube;whiteSpace=wrap;html=1;boundedLbl=1;backgroundOutline=1;darkOpacity=0.05;darkOpacity2=0.1;rotation=0;size=20;fillColor=#d5e8d4;strokeColor=#000000;" vertex="1" parent="d00UFyPHOzQe9xzmYI4u-37">
          <mxGeometry y="330" width="90" height="100" as="geometry" />
        </mxCell>
        <mxCell id="d00UFyPHOzQe9xzmYI4u-50" value="" style="shape=cube;whiteSpace=wrap;html=1;boundedLbl=1;backgroundOutline=1;darkOpacity=0.05;darkOpacity2=0.1;rotation=0;size=20;" vertex="1" parent="d00UFyPHOzQe9xzmYI4u-37">
          <mxGeometry x="200" width="90" height="100" as="geometry" />
        </mxCell>
        <mxCell id="d00UFyPHOzQe9xzmYI4u-51" value="" style="shape=cube;whiteSpace=wrap;html=1;boundedLbl=1;backgroundOutline=1;darkOpacity=0.05;darkOpacity2=0.1;rotation=0;size=20;" vertex="1" parent="d00UFyPHOzQe9xzmYI4u-37">
          <mxGeometry x="100" width="90" height="100" as="geometry" />
        </mxCell>
        <mxCell id="d00UFyPHOzQe9xzmYI4u-52" value="" style="shape=cube;whiteSpace=wrap;html=1;boundedLbl=1;backgroundOutline=1;darkOpacity=0.05;darkOpacity2=0.1;rotation=0;size=20;" vertex="1" parent="d00UFyPHOzQe9xzmYI4u-37">
          <mxGeometry x="300" width="90" height="100" as="geometry" />
        </mxCell>
        <mxCell id="d00UFyPHOzQe9xzmYI4u-53" value="" style="shape=cube;whiteSpace=wrap;html=1;boundedLbl=1;backgroundOutline=1;darkOpacity=0.05;darkOpacity2=0.1;rotation=0;size=20;" vertex="1" parent="d00UFyPHOzQe9xzmYI4u-37">
          <mxGeometry width="90" height="100" as="geometry" />
        </mxCell>
        <mxCell id="d00UFyPHOzQe9xzmYI4u-54" value="" style="shape=cube;whiteSpace=wrap;html=1;boundedLbl=1;backgroundOutline=1;darkOpacity=0.05;darkOpacity2=0.1;rotation=0;size=20;fillColor=#d5e8d4;strokeColor=#000000;" vertex="1" parent="d00UFyPHOzQe9xzmYI4u-37">
          <mxGeometry x="200" width="90" height="100" as="geometry" />
        </mxCell>
        <mxCell id="d00UFyPHOzQe9xzmYI4u-55" value="" style="shape=cube;whiteSpace=wrap;html=1;boundedLbl=1;backgroundOutline=1;darkOpacity=0.05;darkOpacity2=0.1;rotation=0;size=20;fillColor=#d5e8d4;strokeColor=#000000;" vertex="1" parent="d00UFyPHOzQe9xzmYI4u-37">
          <mxGeometry x="100" width="90" height="100" as="geometry" />
        </mxCell>
        <mxCell id="d00UFyPHOzQe9xzmYI4u-56" value="" style="shape=cube;whiteSpace=wrap;html=1;boundedLbl=1;backgroundOutline=1;darkOpacity=0.05;darkOpacity2=0.1;rotation=0;size=20;fillColor=#d5e8d4;strokeColor=#000000;" vertex="1" parent="d00UFyPHOzQe9xzmYI4u-37">
          <mxGeometry width="90" height="100" as="geometry" />
        </mxCell>
        <mxCell id="d00UFyPHOzQe9xzmYI4u-57" value="" style="shape=cube;whiteSpace=wrap;html=1;boundedLbl=1;backgroundOutline=1;darkOpacity=0.05;darkOpacity2=0.1;rotation=0;size=20;fillColor=#d5e8d4;strokeColor=#000000;" vertex="1" parent="d00UFyPHOzQe9xzmYI4u-37">
          <mxGeometry y="110" width="90" height="100" as="geometry" />
        </mxCell>
        <mxCell id="d00UFyPHOzQe9xzmYI4u-58" value="" style="shape=cube;whiteSpace=wrap;html=1;boundedLbl=1;backgroundOutline=1;darkOpacity=0.05;darkOpacity2=0.1;rotation=0;size=20;fillColor=#d5e8d4;strokeColor=#000000;" vertex="1" parent="d00UFyPHOzQe9xzmYI4u-37">
          <mxGeometry x="100" y="110" width="90" height="100" as="geometry" />
        </mxCell>
        <mxCell id="d00UFyPHOzQe9xzmYI4u-59" value="" style="shape=cube;whiteSpace=wrap;html=1;boundedLbl=1;backgroundOutline=1;darkOpacity=0.05;darkOpacity2=0.1;rotation=0;size=20;fillColor=#d5e8d4;strokeColor=#000000;" vertex="1" parent="d00UFyPHOzQe9xzmYI4u-37">
          <mxGeometry x="200" y="110" width="90" height="100" as="geometry" />
        </mxCell>
        <mxCell id="d00UFyPHOzQe9xzmYI4u-60" value="" style="shape=cube;whiteSpace=wrap;html=1;boundedLbl=1;backgroundOutline=1;darkOpacity=0.05;darkOpacity2=0.1;rotation=0;size=20;fillColor=#d5e8d4;strokeColor=#000000;" vertex="1" parent="d00UFyPHOzQe9xzmYI4u-37">
          <mxGeometry x="300" y="110" width="90" height="100" as="geometry" />
        </mxCell>
        <mxCell id="d00UFyPHOzQe9xzmYI4u-61" value="" style="shape=cube;whiteSpace=wrap;html=1;boundedLbl=1;backgroundOutline=1;darkOpacity=0.05;darkOpacity2=0.1;rotation=0;size=20;fillColor=#d5e8d4;strokeColor=#000000;" vertex="1" parent="d00UFyPHOzQe9xzmYI4u-37">
          <mxGeometry x="300" width="90" height="100" as="geometry" />
        </mxCell>
        <mxCell id="d00UFyPHOzQe9xzmYI4u-62" value="" style="shape=cube;whiteSpace=wrap;html=1;boundedLbl=1;backgroundOutline=1;darkOpacity=0.05;darkOpacity2=0.1;rotation=0;size=20;fillColor=#d5e8d4;strokeColor=#000000;" vertex="1" parent="d00UFyPHOzQe9xzmYI4u-37">
          <mxGeometry x="300" y="220" width="90" height="100" as="geometry" />
        </mxCell>
        <mxCell id="d00UFyPHOzQe9xzmYI4u-63" value="" style="shape=cube;whiteSpace=wrap;html=1;boundedLbl=1;backgroundOutline=1;darkOpacity=0.05;darkOpacity2=0.1;rotation=0;size=20;fillColor=#d5e8d4;strokeColor=#000000;" vertex="1" parent="d00UFyPHOzQe9xzmYI4u-37">
          <mxGeometry x="300" y="330" width="90" height="100" as="geometry" />
        </mxCell>
        <mxCell id="d00UFyPHOzQe9xzmYI4u-64" value="" style="shape=cube;whiteSpace=wrap;html=1;boundedLbl=1;backgroundOutline=1;darkOpacity=0.05;darkOpacity2=0.1;rotation=0;size=20;fillColor=#d5e8d4;strokeColor=#000000;" vertex="1" parent="d00UFyPHOzQe9xzmYI4u-37">
          <mxGeometry x="200" y="330" width="90" height="100" as="geometry" />
        </mxCell>
        <mxCell id="d00UFyPHOzQe9xzmYI4u-65" value="" style="shape=cube;whiteSpace=wrap;html=1;boundedLbl=1;backgroundOutline=1;darkOpacity=0.05;darkOpacity2=0.1;rotation=0;size=20;fillColor=#d5e8d4;strokeColor=#000000;" vertex="1" parent="d00UFyPHOzQe9xzmYI4u-37">
          <mxGeometry x="200" y="220" width="90" height="100" as="geometry" />
        </mxCell>
        <mxCell id="d00UFyPHOzQe9xzmYI4u-66" value="" style="shape=cube;whiteSpace=wrap;html=1;boundedLbl=1;backgroundOutline=1;darkOpacity=0.05;darkOpacity2=0.1;rotation=0;size=20;fillColor=#d5e8d4;strokeColor=#000000;" vertex="1" parent="d00UFyPHOzQe9xzmYI4u-37">
          <mxGeometry x="100" y="220" width="90" height="100" as="geometry" />
        </mxCell>
        <mxCell id="d00UFyPHOzQe9xzmYI4u-67" value="" style="shape=cube;whiteSpace=wrap;html=1;boundedLbl=1;backgroundOutline=1;darkOpacity=0.05;darkOpacity2=0.1;rotation=0;size=20;fillColor=#d5e8d4;strokeColor=#000000;" vertex="1" parent="d00UFyPHOzQe9xzmYI4u-37">
          <mxGeometry x="100" y="330" width="90" height="100" as="geometry" />
        </mxCell>
        <mxCell id="d00UFyPHOzQe9xzmYI4u-68" value="" style="group" vertex="1" connectable="0" parent="d00UFyPHOzQe9xzmYI4u-19">
          <mxGeometry x="80" y="80" width="390" height="430" as="geometry" />
        </mxCell>
        <mxCell id="d00UFyPHOzQe9xzmYI4u-69" value="" style="shape=cube;whiteSpace=wrap;html=1;boundedLbl=1;backgroundOutline=1;darkOpacity=0.05;darkOpacity2=0.1;rotation=0;size=20;fillColor=#e1d5e7;strokeColor=#000000;" vertex="1" parent="d00UFyPHOzQe9xzmYI4u-68">
          <mxGeometry x="200" y="110" width="90" height="100" as="geometry" />
        </mxCell>
        <mxCell id="d00UFyPHOzQe9xzmYI4u-70" value="" style="shape=cube;whiteSpace=wrap;html=1;boundedLbl=1;backgroundOutline=1;darkOpacity=0.05;darkOpacity2=0.1;rotation=0;size=20;fillColor=#e1d5e7;strokeColor=#000000;" vertex="1" parent="d00UFyPHOzQe9xzmYI4u-68">
          <mxGeometry x="100" y="110" width="90" height="100" as="geometry" />
        </mxCell>
        <mxCell id="d00UFyPHOzQe9xzmYI4u-71" value="" style="shape=cube;whiteSpace=wrap;html=1;boundedLbl=1;backgroundOutline=1;darkOpacity=0.05;darkOpacity2=0.1;rotation=0;size=20;fillColor=#e1d5e7;strokeColor=#000000;" vertex="1" parent="d00UFyPHOzQe9xzmYI4u-68">
          <mxGeometry x="300" y="110" width="90" height="100" as="geometry" />
        </mxCell>
        <mxCell id="d00UFyPHOzQe9xzmYI4u-72" value="" style="shape=cube;whiteSpace=wrap;html=1;boundedLbl=1;backgroundOutline=1;darkOpacity=0.05;darkOpacity2=0.1;rotation=0;size=20;fillColor=#e1d5e7;strokeColor=#000000;" vertex="1" parent="d00UFyPHOzQe9xzmYI4u-68">
          <mxGeometry y="110" width="90" height="100" as="geometry" />
        </mxCell>
        <mxCell id="d00UFyPHOzQe9xzmYI4u-73" value="" style="shape=cube;whiteSpace=wrap;html=1;boundedLbl=1;backgroundOutline=1;darkOpacity=0.05;darkOpacity2=0.1;rotation=0;size=20;fillColor=#e1d5e7;strokeColor=#000000;" vertex="1" parent="d00UFyPHOzQe9xzmYI4u-68">
          <mxGeometry x="200" y="220" width="90" height="100" as="geometry" />
        </mxCell>
        <mxCell id="d00UFyPHOzQe9xzmYI4u-74" value="" style="shape=cube;whiteSpace=wrap;html=1;boundedLbl=1;backgroundOutline=1;darkOpacity=0.05;darkOpacity2=0.1;rotation=0;size=20;fillColor=#e1d5e7;strokeColor=#000000;" vertex="1" parent="d00UFyPHOzQe9xzmYI4u-68">
          <mxGeometry x="100" y="220" width="90" height="100" as="geometry" />
        </mxCell>
        <mxCell id="d00UFyPHOzQe9xzmYI4u-75" value="" style="shape=cube;whiteSpace=wrap;html=1;boundedLbl=1;backgroundOutline=1;darkOpacity=0.05;darkOpacity2=0.1;rotation=0;size=20;fillColor=#e1d5e7;strokeColor=#000000;" vertex="1" parent="d00UFyPHOzQe9xzmYI4u-68">
          <mxGeometry x="300" y="220" width="90" height="100" as="geometry" />
        </mxCell>
        <mxCell id="d00UFyPHOzQe9xzmYI4u-76" value="" style="shape=cube;whiteSpace=wrap;html=1;boundedLbl=1;backgroundOutline=1;darkOpacity=0.05;darkOpacity2=0.1;rotation=0;size=20;fillColor=#e1d5e7;strokeColor=#000000;" vertex="1" parent="d00UFyPHOzQe9xzmYI4u-68">
          <mxGeometry y="220" width="90" height="100" as="geometry" />
        </mxCell>
        <mxCell id="d00UFyPHOzQe9xzmYI4u-77" value="" style="shape=cube;whiteSpace=wrap;html=1;boundedLbl=1;backgroundOutline=1;darkOpacity=0.05;darkOpacity2=0.1;rotation=0;size=20;fillColor=#e1d5e7;strokeColor=#000000;" vertex="1" parent="d00UFyPHOzQe9xzmYI4u-68">
          <mxGeometry x="200" y="330" width="90" height="100" as="geometry" />
        </mxCell>
        <mxCell id="d00UFyPHOzQe9xzmYI4u-78" value="" style="shape=cube;whiteSpace=wrap;html=1;boundedLbl=1;backgroundOutline=1;darkOpacity=0.05;darkOpacity2=0.1;rotation=0;size=20;fillColor=#e1d5e7;strokeColor=#000000;" vertex="1" parent="d00UFyPHOzQe9xzmYI4u-68">
          <mxGeometry x="100" y="330" width="90" height="100" as="geometry" />
        </mxCell>
        <mxCell id="d00UFyPHOzQe9xzmYI4u-79" value="$$a_{1,H,W}$$" style="shape=cube;whiteSpace=wrap;html=1;boundedLbl=1;backgroundOutline=1;darkOpacity=0.05;darkOpacity2=0.1;rotation=0;size=20;fillColor=#e1d5e7;strokeColor=#000000;" vertex="1" parent="d00UFyPHOzQe9xzmYI4u-68">
          <mxGeometry x="300" y="330" width="90" height="100" as="geometry" />
        </mxCell>
        <mxCell id="d00UFyPHOzQe9xzmYI4u-80" value="$$a_{1,H,1}$$" style="shape=cube;whiteSpace=wrap;html=1;boundedLbl=1;backgroundOutline=1;darkOpacity=0.05;darkOpacity2=0.1;rotation=0;size=20;fillColor=#e1d5e7;strokeColor=#000000;" vertex="1" parent="d00UFyPHOzQe9xzmYI4u-68">
          <mxGeometry y="330" width="90" height="100" as="geometry" />
        </mxCell>
        <mxCell id="d00UFyPHOzQe9xzmYI4u-81" value="" style="shape=cube;whiteSpace=wrap;html=1;boundedLbl=1;backgroundOutline=1;darkOpacity=0.05;darkOpacity2=0.1;rotation=0;size=20;fillColor=#e1d5e7;strokeColor=#000000;" vertex="1" parent="d00UFyPHOzQe9xzmYI4u-68">
          <mxGeometry x="200" width="90" height="100" as="geometry" />
        </mxCell>
        <mxCell id="d00UFyPHOzQe9xzmYI4u-82" value="" style="shape=cube;whiteSpace=wrap;html=1;boundedLbl=1;backgroundOutline=1;darkOpacity=0.05;darkOpacity2=0.1;rotation=0;size=20;fillColor=#e1d5e7;strokeColor=#000000;" vertex="1" parent="d00UFyPHOzQe9xzmYI4u-68">
          <mxGeometry x="100" width="90" height="100" as="geometry" />
        </mxCell>
        <mxCell id="d00UFyPHOzQe9xzmYI4u-83" value="$$a_{1,1,W}$$" style="shape=cube;whiteSpace=wrap;html=1;boundedLbl=1;backgroundOutline=1;darkOpacity=0.05;darkOpacity2=0.1;rotation=0;size=20;fillColor=#e1d5e7;strokeColor=#000000;" vertex="1" parent="d00UFyPHOzQe9xzmYI4u-68">
          <mxGeometry x="300" width="90" height="100" as="geometry" />
        </mxCell>
        <mxCell id="d00UFyPHOzQe9xzmYI4u-84" value="$$a_{1,1,1}$$" style="shape=cube;whiteSpace=wrap;html=1;boundedLbl=1;backgroundOutline=1;darkOpacity=0.05;darkOpacity2=0.1;rotation=0;size=20;fillColor=#e1d5e7;strokeColor=#000000;" vertex="1" parent="d00UFyPHOzQe9xzmYI4u-68">
          <mxGeometry width="90" height="100" as="geometry" />
        </mxCell>
        <mxCell id="d00UFyPHOzQe9xzmYI4u-85" value="" style="endArrow=none;dashed=1;html=1;dashPattern=1 3;strokeWidth=2;rounded=0;" edge="1" parent="d00UFyPHOzQe9xzmYI4u-68">
          <mxGeometry width="50" height="50" relative="1" as="geometry">
            <mxPoint x="145" y="161" as="sourcePoint" />
            <mxPoint x="165" y="181" as="targetPoint" />
            <Array as="points" />
          </mxGeometry>
        </mxCell>
        <mxCell id="d00UFyPHOzQe9xzmYI4u-86" value="" style="endArrow=none;dashed=1;html=1;dashPattern=1 3;strokeWidth=2;rounded=0;" edge="1" parent="d00UFyPHOzQe9xzmYI4u-68">
          <mxGeometry width="50" height="50" relative="1" as="geometry">
            <mxPoint x="246" y="271" as="sourcePoint" />
            <mxPoint x="266" y="291" as="targetPoint" />
            <Array as="points" />
          </mxGeometry>
        </mxCell>
        <mxCell id="d00UFyPHOzQe9xzmYI4u-87" value="" style="endArrow=none;dashed=1;html=1;dashPattern=1 3;strokeWidth=2;rounded=0;" edge="1" parent="d00UFyPHOzQe9xzmYI4u-68">
          <mxGeometry width="50" height="50" relative="1" as="geometry">
            <mxPoint x="54" y="157" as="sourcePoint" />
            <mxPoint x="54" y="187" as="targetPoint" />
            <Array as="points" />
          </mxGeometry>
        </mxCell>
        <mxCell id="d00UFyPHOzQe9xzmYI4u-88" value="" style="endArrow=none;dashed=1;html=1;dashPattern=1 3;strokeWidth=2;rounded=0;" edge="1" parent="d00UFyPHOzQe9xzmYI4u-68">
          <mxGeometry width="50" height="50" relative="1" as="geometry">
            <mxPoint x="55" y="268" as="sourcePoint" />
            <mxPoint x="55" y="298" as="targetPoint" />
            <Array as="points" />
          </mxGeometry>
        </mxCell>
        <mxCell id="d00UFyPHOzQe9xzmYI4u-89" value="" style="endArrow=none;dashed=1;html=1;dashPattern=1 3;strokeWidth=2;rounded=0;" edge="1" parent="d00UFyPHOzQe9xzmYI4u-68">
          <mxGeometry width="50" height="50" relative="1" as="geometry">
            <mxPoint x="142" y="60" as="sourcePoint" />
            <mxPoint x="172" y="60" as="targetPoint" />
            <Array as="points" />
          </mxGeometry>
        </mxCell>
        <mxCell id="d00UFyPHOzQe9xzmYI4u-90" value="" style="endArrow=none;dashed=1;html=1;dashPattern=1 3;strokeWidth=2;rounded=0;" edge="1" parent="d00UFyPHOzQe9xzmYI4u-68">
          <mxGeometry width="50" height="50" relative="1" as="geometry">
            <mxPoint x="242" y="60" as="sourcePoint" />
            <mxPoint x="272" y="60" as="targetPoint" />
            <Array as="points" />
          </mxGeometry>
        </mxCell>
        <mxCell id="d00UFyPHOzQe9xzmYI4u-91" value="" style="endArrow=none;dashed=1;html=1;dashPattern=1 3;strokeWidth=2;rounded=0;" edge="1" parent="d00UFyPHOzQe9xzmYI4u-68">
          <mxGeometry width="50" height="50" relative="1" as="geometry">
            <mxPoint x="142" y="390" as="sourcePoint" />
            <mxPoint x="172" y="390" as="targetPoint" />
            <Array as="points" />
          </mxGeometry>
        </mxCell>
        <mxCell id="d00UFyPHOzQe9xzmYI4u-92" value="" style="endArrow=none;dashed=1;html=1;dashPattern=1 3;strokeWidth=2;rounded=0;" edge="1" parent="d00UFyPHOzQe9xzmYI4u-68">
          <mxGeometry width="50" height="50" relative="1" as="geometry">
            <mxPoint x="242" y="390" as="sourcePoint" />
            <mxPoint x="272" y="390" as="targetPoint" />
            <Array as="points" />
          </mxGeometry>
        </mxCell>
        <mxCell id="d00UFyPHOzQe9xzmYI4u-93" value="" style="endArrow=none;dashed=1;html=1;dashPattern=1 3;strokeWidth=2;rounded=0;" edge="1" parent="d00UFyPHOzQe9xzmYI4u-68">
          <mxGeometry width="50" height="50" relative="1" as="geometry">
            <mxPoint x="356" y="159" as="sourcePoint" />
            <mxPoint x="356" y="189" as="targetPoint" />
            <Array as="points" />
          </mxGeometry>
        </mxCell>
        <mxCell id="d00UFyPHOzQe9xzmYI4u-94" value="" style="endArrow=none;dashed=1;html=1;dashPattern=1 3;strokeWidth=2;rounded=0;" edge="1" parent="d00UFyPHOzQe9xzmYI4u-68">
          <mxGeometry width="50" height="50" relative="1" as="geometry">
            <mxPoint x="355" y="267" as="sourcePoint" />
            <mxPoint x="355" y="297" as="targetPoint" />
            <Array as="points" />
          </mxGeometry>
        </mxCell>
        <mxCell id="d00UFyPHOzQe9xzmYI4u-95" value="&lt;font face=&quot;Times New Roman&quot; style=&quot;font-size: 18px;&quot;&gt;$$|A| = 16$$&lt;/font&gt;" style="text;html=1;align=center;verticalAlign=middle;resizable=0;points=[];autosize=1;strokeColor=none;fillColor=none;rotation=45;" vertex="1" parent="d00UFyPHOzQe9xzmYI4u-19">
          <mxGeometry x="-70" y="445" width="120" height="40" as="geometry" />
        </mxCell>
        <mxCell id="d00UFyPHOzQe9xzmYI4u-96" value="" style="endArrow=classic;html=1;rounded=0;" edge="1" parent="1">
          <mxGeometry width="50" height="50" relative="1" as="geometry">
            <mxPoint x="620" y="-1390" as="sourcePoint" />
            <mxPoint x="500" y="-1500" as="targetPoint" />
          </mxGeometry>
        </mxCell>
        <mxCell id="d00UFyPHOzQe9xzmYI4u-97" value="&lt;font face=&quot;Times New Roman&quot; style=&quot;font-size: 18px;&quot;&gt;$$W = 48$$&lt;/font&gt;" style="text;html=1;align=center;verticalAlign=middle;resizable=0;points=[];autosize=1;strokeColor=none;fillColor=none;" vertex="1" parent="1">
          <mxGeometry x="775" y="-1369" width="110" height="40" as="geometry" />
        </mxCell>
        <mxCell id="d00UFyPHOzQe9xzmYI4u-98" value="&lt;font face=&quot;Times New Roman&quot; style=&quot;font-size: 18px;&quot;&gt;$$H = 48$$&lt;/font&gt;" style="text;html=1;align=center;verticalAlign=middle;resizable=0;points=[];autosize=1;strokeColor=none;fillColor=none;rotation=-90;" vertex="1" parent="1">
          <mxGeometry x="406" y="-1740" width="110" height="40" as="geometry" />
        </mxCell>
      </root>
    </mxGraphModel>
  </diagram>
</mxfile>
